<?xml version='1.0' encoding='utf-8'?>
<svg class="physical-rail" viewBox="0 0 390 44" preserveAspectRatio="none" aria-hidden="true" width="390" height="44"><defs><linearGradient id="railwood" x2="0" y2="1"><stop stop-color="#c9b18b" /><stop offset=".2" stop-color="#a58b65" /><stop offset="1" stop-color="#5b5140" /></linearGradient></defs><g fill="#172626" opacity=".4"><path d="M6 40L30 43H42L17 39ZM190 40L214 44H227L201 39ZM372 40L390 44V40L382 39Z" /></g><path d="M0 40H390" stroke="#19282a" stroke-width="5" opacity=".2" /><path d="M0 11L390 14V21L0 18ZM0 28L390 30V36L0 34Z" fill="url(#railwood)" /><path d="M0 17L390 20V22L0 19ZM0 33L390 35V37L0 35Z" fill="#393f35" opacity=".7" /><path d="M6 2L18 0V43H6ZM190 2L201 0V43H190ZM372 2L384 0V43H372Z" fill="url(#railwood)" /><path d="M0 12H390M0 29H390M8 3V41M192 3V41M374 3V41" fill="none" stroke="#dec9a0" stroke-width=".7" /><path d="M20 19L187 29M204 29L369 19" stroke="#74634b" stroke-width="3" /><g fill="#454c46"><circle cx="12" cy="15" r="1.3" /><circle cx="195" cy="15" r="1.3" /><circle cx="378" cy="15" r="1.3" /></g><path d="M194 3H216L210 9L216 15H194Z" fill="#a6545c" /></svg>