<svg xmlns="http://www.w3.org/2000/svg" viewBox="0 -110 390 844" preserveAspectRatio="xMidYMid slice"><defs xmlns="http://www.w3.org/2000/svg"><linearGradient id="day-sky" x2="0" y2="1"><stop stop-color="#388fc4" /><stop offset="1" stop-color="#e5e8c9" /></linearGradient><linearGradient id="day-field" x1=".1" y1="0" x2=".8" y2="1"><stop stop-color="#bcc17b" /><stop offset=".4" stop-color="#8e9c58" /><stop offset="1" stop-color="#485e3b" /></linearGradient><radialGradient id="day-light"><stop stop-color="#fff3c7" stop-opacity=".15" /><stop offset="1" stop-color="#fff3c7" stop-opacity="0" /></radialGradient><filter id="day-haze"><feGaussianBlur stdDeviation="6" /></filter><linearGradient id="day-wood" x2="0" y2="1"><stop stop-color="#d6bd85" /><stop offset=".25" stop-color="#b09662" /><stop offset="1" stop-color="#665537" /></linearGradient><filter id="day-grain"><feTurbulence type="fractalNoise" baseFrequency=".8" numOctaves="3" seed="442" /><feColorMatrix type="saturate" values="0" /><feComponentTransfer><feFuncA type="linear" slope=".07" /></feComponentTransfer><feBlend in="SourceGraphic" mode="soft-light" /></filter></defs><defs xmlns="http://www.w3.org/2000/svg"><linearGradient id="day-ridge-volume0" x1="0" y1="0" x2=".65" y2="1"><stop stop-color="#a7bdba" /><stop offset=".24" stop-color="#9db7b3" /><stop offset=".42" stop-color="#819e98" /><stop offset="1" stop-color="#9db7b3" /></linearGradient></defs><defs xmlns="http://www.w3.org/2000/svg"><clipPath id="day-ridge0"><path d="M0 192L20 181L41 185L72 160L91 163L121 147L146 154L176 137L198 144L217 167L238 159L258 166L287 141L309 149L333 171L360 157L390 168V1100H0Z" fill="white" /></clipPath></defs><defs xmlns="http://www.w3.org/2000/svg"><linearGradient id="day-ridge-volume1" x1="0" y1="0" x2=".65" y2="1"><stop stop-color="#92aa9f" /><stop offset=".24" stop-color="#819e91" /><stop offset=".42" stop-color="#6c8b7e" /><stop offset="1" stop-color="#819e91" /></linearGradient></defs><defs xmlns="http://www.w3.org/2000/svg"><clipPath id="day-ridge1"><path d="M0 218Q35 187 65 192L98 209Q131 173 164 185L196 201Q241 166 277 196L310 187Q355 192 390 210V1100H0Z" fill="white" /></clipPath></defs><defs xmlns="http://www.w3.org/2000/svg"><linearGradient id="day-ridge-volume2" x1="0" y1="0" x2=".65" y2="1"><stop stop-color="#7f9c88" /><stop offset=".24" stop-color="#698c72" /><stop offset=".42" stop-color="#597d67" /><stop offset="1" stop-color="#698c72" /></linearGradient></defs><defs xmlns="http://www.w3.org/2000/svg"><clipPath id="day-ridge2"><path d="M0 243Q46 205 104 234Q159 200 220 235Q278 210 322 233Q358 225 390 234V1100H0Z" fill="white" /></clipPath></defs><defs xmlns="http://www.w3.org/2000/svg"><clipPath id="day-ground-paint"><path d="M0 259Q80 228 163 255Q258 278 390 249V1100H0Z" fill="white" /></clipPath></defs><path xmlns="http://www.w3.org/2000/svg" d="M0 192L20 181L41 185L72 160L91 163L121 147L146 154L176 137L198 144L217 167L238 159L258 166L287 141L309 149L333 171L360 157L390 168V1100H0Z" fill="url(#day-ridge-volume0)" /><g xmlns="http://www.w3.org/2000/svg" clip-path="url(#day-ridge0)"><path d="M130.2 195.1q9.7 -8 24.3 -3l-14.6 8Z" fill="#b0c3b7" opacity="0.07" /><path d="M174.9 173.3q13.9 -8 34.8 -3l-20.9 8Z" fill="#b0c3b7" opacity="0.08" /><path d="M263.3 186.6q4.7 -8 11.9 -3l-7.1 8Z" fill="#b0c3b7" opacity="0.11" /><path d="M76.7 223.7q15.2 -8 38.1 -3l-22.9 8Z" fill="#b0c3b7" opacity="0.10" /><path d="M207.9 230.5q16.1 -8 40.3 -3l-24.2 8Z" fill="#b0c3b7" opacity="0.09" /><path d="M144.5 172.3q4.5 -8 11.2 -3l-6.7 8Z" fill="#b0c3b7" opacity="0.09" /><path d="M142.2 177.4q14.2 -8 35.5 -3l-21.3 8Z" fill="#b0c3b7" opacity="0.10" /><path d="M307.6 198.7q3.7 -8 9.2 -3l-5.5 8Z" fill="#b0c3b7" opacity="0.08" /><path d="M175.8 179.3q13.4 -8 33.4 -3l-20.0 8Z" fill="#b0c3b7" opacity="0.07" /><path d="M315.4 179.2q14.5 -8 36.2 -3l-21.7 8Z" fill="#b0c3b7" opacity="0.04" /><path d="M167.7 174.3q15.6 -8 39.0 -3l-23.4 8Z" fill="#b0c3b7" opacity="0.11" /><path d="M96.2 194.8q10.1 -8 25.4 -3l-15.2 8Z" fill="#b0c3b7" opacity="0.10" /><path d="M378.6 228.7q14.2 -8 35.6 -3l-21.4 8Z" fill="#b0c3b7" opacity="0.10" /><path d="M358.4 195.9q4.0 -8 10.1 -3l-6.1 8Z" fill="#b0c3b7" opacity="0.07" /><path d="M215.9 210.5q9.0 -8 22.5 -3l-13.5 8Z" fill="#b0c3b7" opacity="0.03" /><path d="M238.9 209.1q7.3 -8 18.3 -3l-11.0 8Z" fill="#b0c3b7" opacity="0.08" /><path d="M237.9 214.5q6.6 -8 16.4 -3l-9.8 8Z" fill="#b0c3b7" opacity="0.08" /><path d="M105.1 204.1q9.4 -8 23.6 -3l-14.1 8Z" fill="#b0c3b7" opacity="0.09" /><path d="M313.8 219.5q14.8 -8 37.1 -3l-22.3 8Z" fill="#b0c3b7" opacity="0.11" /><path d="M279.1 221.2q8.2 -8 20.5 -3l-12.3 8Z" fill="#b0c3b7" opacity="0.04" /><path d="M29.3 216.0q5.9 -8 14.7 -3l-8.8 8Z" fill="#b0c3b7" opacity="0.06" /><path d="M117.4 223.6q13.0 -8 32.5 -3l-19.5 8Z" fill="#b0c3b7" opacity="0.03" /><path d="M124.8 229.5q9.6 -8 24.0 -3l-14.4 8Z" fill="#b0c3b7" opacity="0.05" /><path d="M297.3 228.4q13.5 -8 33.8 -3l-20.3 8Z" fill="#b0c3b7" opacity="0.08" /><path d="M347.2 175.3q13.2 -8 32.9 -3l-19.7 8Z" fill="#b0c3b7" opacity="0.09" /><path d="M369.3 189.1q3.7 -8 9.2 -3l-5.5 8Z" fill="#b0c3b7" opacity="0.04" /><path d="M249.9 228.4q6.3 -8 15.9 -3l-9.5 8Z" fill="#b0c3b7" opacity="0.11" /><path d="M110.1 222.0q3.8 -8 9.5 -3l-5.7 8Z" fill="#b0c3b7" opacity="0.09" /><path d="M93.7 198.7q11.7 -8 29.2 -3l-17.5 8Z" fill="#b0c3b7" opacity="0.12" /><path d="M66.6 182.6q16.9 -8 42.2 -3l-25.3 8Z" fill="#b0c3b7" opacity="0.11" /><path d="M284.1 222.6q14.1 -8 35.2 -3l-21.1 8Z" fill="#b0c3b7" opacity="0.10" /><path d="M282.7 227.4q8.7 -8 21.7 -3l-13.0 8Z" fill="#b0c3b7" opacity="0.04" /><path d="M4.9 216.3q4.2 -8 10.4 -3l-6.3 8Z" fill="#b0c3b7" opacity="0.05" /><path d="M224.5 207.7q15.3 -8 38.2 -3l-22.9 8Z" fill="#b0c3b7" opacity="0.10" /><path d="M209.6 200.1q7.3 -8 18.2 -3l-10.9 8Z" fill="#b0c3b7" opacity="0.05" /><path d="M134.6 229.1q10.3 -8 25.7 -3l-15.4 8Z" fill="#b0c3b7" opacity="0.08" /><path d="M363.8 215.9q13.8 -8 34.5 -3l-20.7 8Z" fill="#b0c3b7" opacity="0.06" /><path d="M153.2 170.3q14.7 -8 36.7 -3l-22.0 8Z" fill="#b0c3b7" opacity="0.07" /><path d="M312.5 209.0q15.8 -8 39.6 -3l-23.8 8Z" fill="#b0c3b7" opacity="0.05" /><path d="M1.9 230.0q7.1 -8 17.6 -3l-10.6 8Z" fill="#b0c3b7" opacity="0.08" /><path d="M361.1 226.1q8.4 -8 21.0 -3l-12.6 8Z" fill="#b0c3b7" opacity="0.07" /><path d="M76.0 209.9q4.3 -8 10.7 -3l-6.4 8Z" fill="#b0c3b7" opacity="0.05" /><path d="M20.6 217.4q9.5 -8 23.7 -3l-14.2 8Z" fill="#b0c3b7" opacity="0.11" /><path d="M326.1 181.9q14.3 -8 35.8 -3l-21.5 8Z" fill="#b0c3b7" opacity="0.08" /><path d="M43.2 216.8q4.3 -8 10.7 -3l-6.4 8Z" fill="#b0c3b7" opacity="0.07" /><path d="M107.9 201.1q12.0 -8 30.0 -3l-18.0 8Z" fill="#b0c3b7" opacity="0.07" /><path d="M165.0 173.8q5.5 -8 13.9 -3l-8.3 8Z" fill="#b0c3b7" opacity="0.03" /><path d="M365.8 171.7q7.2 -8 18.1 -3l-10.9 8Z" fill="#b0c3b7" opacity="0.05" /><path d="M51.8 174.2q8.9 -8 22.2 -3l-13.3 8Z" fill="#b0c3b7" opacity="0.12" /><path d="M297.7 165.0q7.2 -8 18.1 -3l-10.8 8Z" fill="#b0c3b7" opacity="0.08" /><path d="M41.5 180.0q12.0 -8 30.0 -3l-18.0 8Z" fill="#b0c3b7" opacity="0.04" /><path d="M308.9 182.3q12.4 -8 30.9 -3l-18.5 8Z" fill="#b0c3b7" opacity="0.08" /><path d="M166.0 186.7q11.5 -8 28.8 -3l-17.3 8Z" fill="#b0c3b7" opacity="0.04" /><path d="M49.3 188.3q8.8 -8 22.0 -3l-13.2 8Z" fill="#b0c3b7" opacity="0.05" /><path d="M301.3 180.8q7.5 -8 18.9 -3l-11.3 8Z" fill="#b0c3b7" opacity="0.07" /><path d="M371.0 189.9q12.8 -8 31.9 -3l-19.2 8Z" fill="#b0c3b7" opacity="0.06" /><path d="M24.0 232.0q9.5 -8 23.7 -3l-14.2 8Z" fill="#b0c3b7" opacity="0.07" /><path d="M197.7 227.8q11.3 -8 28.2 -3l-16.9 8Z" fill="#b0c3b7" opacity="0.10" /><path d="M29.9 224.0q8.0 -8 20.1 -3l-12.1 8Z" fill="#b0c3b7" opacity="0.06" /><path d="M282.8 181.5q16.4 -8 41.0 -3l-24.6 8Z" fill="#b0c3b7" opacity="0.11" /><path d="M140.8 190.6q4.6 -8 11.6 -3l-6.9 8Z" fill="#b0c3b7" opacity="0.11" /><path d="M102.4 181.3q6.2 -8 15.6 -3l-9.4 8Z" fill="#b0c3b7" opacity="0.08" /><path d="M293.9 177.0q4.9 -8 12.2 -3l-7.3 8Z" fill="#b0c3b7" opacity="0.10" /><path d="M234.8 180.0q3.8 -8 9.5 -3l-5.7 8Z" fill="#b0c3b7" opacity="0.10" /><path d="M21.2 225.3q15.1 -8 37.8 -3l-22.7 8Z" fill="#b0c3b7" opacity="0.05" /><path d="M316.7 167.9q17.2 -8 43.0 -3l-25.8 8Z" fill="#b0c3b7" opacity="0.04" /><path d="M245.1 191.2q4.0 -8 10.0 -3l-6.0 8Z" fill="#b0c3b7" opacity="0.12" /><path d="M36.4 224.3q9.6 -8 23.9 -3l-14.3 8Z" fill="#b0c3b7" opacity="0.12" /><path d="M264.7 194.8q14.5 -8 36.4 -3l-21.8 8Z" fill="#b0c3b7" opacity="0.04" /><path d="M41.2 213.9q4.8 -8 12.0 -3l-7.2 8Z" fill="#b0c3b7" opacity="0.09" /><path d="M120.5 234.6q11.5 -8 28.8 -3l-17.3 8Z" fill="#b0c3b7" opacity="0.04" /><path d="M254.8 204.5q4.2 -8 10.5 -3l-6.3 8Z" fill="#b0c3b7" opacity="0.09" /><path d="M16.5 176.5q4.7 -8 11.7 -3l-7.0 8Z" fill="#b0c3b7" opacity="0.05" /><path d="M234.8 207.6q16.4 -8 41.1 -3l-24.6 8Z" fill="#b0c3b7" opacity="0.11" /><path d="M288.9 175.6q4.7 -8 11.9 -3l-7.1 8Z" fill="#b0c3b7" opacity="0.12" /></g><path xmlns="http://www.w3.org/2000/svg" d="M0 218Q35 187 65 192L98 209Q131 173 164 185L196 201Q241 166 277 196L310 187Q355 192 390 210V1100H0Z" fill="url(#day-ridge-volume1)" /><g xmlns="http://www.w3.org/2000/svg" clip-path="url(#day-ridge1)"><path d="M290.2 184.4q12.4 -8 31.0 -3l-18.6 8Z" fill="#9db29f" opacity="0.05" /><path d="M98.4 201.9q3.8 -8 9.4 -3l-5.7 8Z" fill="#9db29f" opacity="0.11" /><path d="M215.3 248.4q10.5 -8 26.4 -3l-15.8 8Z" fill="#9db29f" opacity="0.11" /><path d="M28.6 204.8q16.2 -8 40.5 -3l-24.3 8Z" fill="#9db29f" opacity="0.05" /><path d="M17.6 246.9q11.6 -8 29.1 -3l-17.4 8Z" fill="#9db29f" opacity="0.05" /><path d="M-7.3 207.4q15.2 -8 38.0 -3l-22.8 8Z" fill="#9db29f" opacity="0.05" /><path d="M149.9 212.9q4.9 -8 12.3 -3l-7.4 8Z" fill="#9db29f" opacity="0.08" /><path d="M351.1 221.0q7.4 -8 18.6 -3l-11.2 8Z" fill="#9db29f" opacity="0.07" /><path d="M164.5 200.0q15.4 -8 38.5 -3l-23.1 8Z" fill="#9db29f" opacity="0.08" /><path d="M253.3 185.8q9.9 -8 24.8 -3l-14.9 8Z" fill="#9db29f" opacity="0.03" /><path d="M257.5 186.0q14.0 -8 35.0 -3l-21.0 8Z" fill="#9db29f" opacity="0.07" /><path d="M281.2 217.4q13.9 -8 34.7 -3l-20.8 8Z" fill="#9db29f" opacity="0.11" /><path d="M247.5 222.6q4.9 -8 12.3 -3l-7.4 8Z" fill="#9db29f" opacity="0.06" /><path d="M351.2 241.6q9.4 -8 23.4 -3l-14.0 8Z" fill="#9db29f" opacity="0.05" /><path d="M316.3 185.9q10.4 -8 26.0 -3l-15.6 8Z" fill="#9db29f" opacity="0.07" /><path d="M373.3 221.7q8.4 -8 21.1 -3l-12.6 8Z" fill="#9db29f" opacity="0.09" /><path d="M365.2 211.5q5.4 -8 13.5 -3l-8.1 8Z" fill="#9db29f" opacity="0.07" /><path d="M313.6 193.3q12.7 -8 31.7 -3l-19.0 8Z" fill="#9db29f" opacity="0.08" /><path d="M298.7 232.4q8.5 -8 21.3 -3l-12.8 8Z" fill="#9db29f" opacity="0.06" /><path d="M149.3 197.8q6.1 -8 15.2 -3l-9.1 8Z" fill="#9db29f" opacity="0.07" /><path d="M197.5 227.9q14.3 -8 35.7 -3l-21.4 8Z" fill="#9db29f" opacity="0.09" /><path d="M267.7 220.9q6.4 -8 16.1 -3l-9.6 8Z" fill="#9db29f" opacity="0.09" /><path d="M60.3 215.4q5.1 -8 12.7 -3l-7.6 8Z" fill="#9db29f" opacity="0.11" /><path d="M331.1 246.7q12.7 -8 31.8 -3l-19.1 8Z" fill="#9db29f" opacity="0.04" /><path d="M47.4 203.2q12.2 -8 30.4 -3l-18.3 8Z" fill="#9db29f" opacity="0.11" /><path d="M317.2 240.2q16.3 -8 40.8 -3l-24.5 8Z" fill="#9db29f" opacity="0.11" /><path d="M175.7 244.0q6.2 -8 15.6 -3l-9.4 8Z" fill="#9db29f" opacity="0.08" /><path d="M374.4 196.9q9.9 -8 24.7 -3l-14.8 8Z" fill="#9db29f" opacity="0.06" /><path d="M155.4 213.1q6.3 -8 15.7 -3l-9.4 8Z" fill="#9db29f" opacity="0.08" /><path d="M48.2 226.5q11.7 -8 29.4 -3l-17.6 8Z" fill="#9db29f" opacity="0.04" /><path d="M89.5 242.6q13.7 -8 34.2 -3l-20.5 8Z" fill="#9db29f" opacity="0.07" /><path d="M81.4 243.8q14.0 -8 35.0 -3l-21.0 8Z" fill="#9db29f" opacity="0.04" /><path d="M96.6 231.8q16.4 -8 41.1 -3l-24.7 8Z" fill="#9db29f" opacity="0.10" /><path d="M361.3 222.9q16.5 -8 41.2 -3l-24.7 8Z" fill="#9db29f" opacity="0.10" /><path d="M-6.5 189.6q8.2 -8 20.6 -3l-12.4 8Z" fill="#9db29f" opacity="0.07" /><path d="M34.7 217.2q15.3 -8 38.2 -3l-22.9 8Z" fill="#9db29f" opacity="0.07" /><path d="M207.7 243.8q16.8 -8 42.1 -3l-25.3 8Z" fill="#9db29f" opacity="0.05" /><path d="M330.3 226.4q11.0 -8 27.4 -3l-16.4 8Z" fill="#9db29f" opacity="0.05" /><path d="M40.9 215.3q15.5 -8 38.8 -3l-23.3 8Z" fill="#9db29f" opacity="0.08" /><path d="M363.4 200.1q10.1 -8 25.3 -3l-15.2 8Z" fill="#9db29f" opacity="0.07" /><path d="M343.4 208.9q8.3 -8 20.9 -3l-12.5 8Z" fill="#9db29f" opacity="0.05" /><path d="M283.5 208.0q16.1 -8 40.3 -3l-24.2 8Z" fill="#9db29f" opacity="0.06" /><path d="M285.8 195.5q11.1 -8 27.8 -3l-16.7 8Z" fill="#9db29f" opacity="0.05" /><path d="M365.5 205.8q9.8 -8 24.6 -3l-14.7 8Z" fill="#9db29f" opacity="0.06" /><path d="M266.3 186.2q11.5 -8 28.7 -3l-17.2 8Z" fill="#9db29f" opacity="0.10" /><path d="M372.3 245.4q7.6 -8 18.9 -3l-11.4 8Z" fill="#9db29f" opacity="0.04" /><path d="M218.5 193.6q15.2 -8 37.9 -3l-22.8 8Z" fill="#9db29f" opacity="0.11" /><path d="M-10.8 210.8q8.5 -8 21.4 -3l-12.8 8Z" fill="#9db29f" opacity="0.11" /><path d="M106.4 243.2q5.0 -8 12.6 -3l-7.5 8Z" fill="#9db29f" opacity="0.10" /><path d="M58.1 217.0q15.7 -8 39.4 -3l-23.6 8Z" fill="#9db29f" opacity="0.05" /><path d="M-18.4 235.7q10.0 -8 24.9 -3l-14.9 8Z" fill="#9db29f" opacity="0.11" /><path d="M278.8 229.3q4.8 -8 12.1 -3l-7.2 8Z" fill="#9db29f" opacity="0.11" /><path d="M206.2 210.5q4.4 -8 11.0 -3l-6.6 8Z" fill="#9db29f" opacity="0.04" /><path d="M311.4 249.5q9.6 -8 24.0 -3l-14.4 8Z" fill="#9db29f" opacity="0.11" /><path d="M176.5 224.0q5.9 -8 14.7 -3l-8.8 8Z" fill="#9db29f" opacity="0.11" /><path d="M182.6 194.0q5.4 -8 13.4 -3l-8.1 8Z" fill="#9db29f" opacity="0.06" /><path d="M-6.3 183.7q8.2 -8 20.4 -3l-12.2 8Z" fill="#9db29f" opacity="0.06" /><path d="M33.7 245.7q5.3 -8 13.3 -3l-8.0 8Z" fill="#9db29f" opacity="0.11" /><path d="M89.7 194.0q10.9 -8 27.2 -3l-16.3 8Z" fill="#9db29f" opacity="0.07" /><path d="M164.1 185.9q13.0 -8 32.5 -3l-19.5 8Z" fill="#9db29f" opacity="0.05" /><path d="M276.2 210.5q4.0 -8 9.9 -3l-6.0 8Z" fill="#9db29f" opacity="0.07" /><path d="M191.9 234.4q9.1 -8 22.8 -3l-13.7 8Z" fill="#9db29f" opacity="0.06" /><path d="M85.1 245.6q8.9 -8 22.2 -3l-13.3 8Z" fill="#9db29f" opacity="0.11" /><path d="M246.5 222.7q13.1 -8 32.6 -3l-19.6 8Z" fill="#9db29f" opacity="0.07" /><path d="M68.3 189.4q5.7 -8 14.2 -3l-8.5 8Z" fill="#9db29f" opacity="0.09" /><path d="M156.4 196.3q13.6 -8 34.1 -3l-20.5 8Z" fill="#9db29f" opacity="0.12" /><path d="M21.5 223.7q5.0 -8 12.5 -3l-7.5 8Z" fill="#9db29f" opacity="0.08" /><path d="M153.0 220.7q16.2 -8 40.6 -3l-24.4 8Z" fill="#9db29f" opacity="0.11" /><path d="M192.2 188.2q6.3 -8 15.8 -3l-9.5 8Z" fill="#9db29f" opacity="0.10" /><path d="M71.5 206.8q11.7 -8 29.3 -3l-17.6 8Z" fill="#9db29f" opacity="0.10" /><path d="M343.8 199.6q11.0 -8 27.4 -3l-16.4 8Z" fill="#9db29f" opacity="0.05" /><path d="M133.3 233.0q8.0 -8 19.9 -3l-12.0 8Z" fill="#9db29f" opacity="0.07" /><path d="M254.8 225.9q3.9 -8 9.8 -3l-5.9 8Z" fill="#9db29f" opacity="0.11" /><path d="M72.7 220.3q16.8 -8 41.9 -3l-25.2 8Z" fill="#9db29f" opacity="0.07" /><path d="M303.6 217.1q14.1 -8 35.2 -3l-21.1 8Z" fill="#9db29f" opacity="0.07" /></g><path xmlns="http://www.w3.org/2000/svg" d="M0 243Q46 205 104 234Q159 200 220 235Q278 210 322 233Q358 225 390 234V1100H0Z" fill="url(#day-ridge-volume2)" /><g xmlns="http://www.w3.org/2000/svg" clip-path="url(#day-ridge2)"><path d="M106.6 203.8q10.2 -8 25.5 -3l-15.3 8Z" fill="#8ca589" opacity="0.11" /><path d="M284.5 243.6q9.6 -8 24.0 -3l-14.4 8Z" fill="#8ca589" opacity="0.06" /><path d="M10.4 240.1q6.6 -8 16.4 -3l-9.9 8Z" fill="#8ca589" opacity="0.07" /><path d="M273.0 258.7q5.3 -8 13.2 -3l-7.9 8Z" fill="#8ca589" opacity="0.04" /><path d="M281.9 204.2q14.5 -8 36.3 -3l-21.8 8Z" fill="#8ca589" opacity="0.10" /><path d="M109.4 212.9q8.1 -8 20.4 -3l-12.2 8Z" fill="#8ca589" opacity="0.04" /><path d="M305.4 225.0q12.2 -8 30.4 -3l-18.2 8Z" fill="#8ca589" opacity="0.06" /><path d="M105.2 237.6q12.9 -8 32.1 -3l-19.3 8Z" fill="#8ca589" opacity="0.11" /><path d="M280.0 215.4q12.0 -8 29.9 -3l-18.0 8Z" fill="#8ca589" opacity="0.10" /><path d="M348.9 228.4q7.8 -8 19.6 -3l-11.8 8Z" fill="#8ca589" opacity="0.04" /><path d="M88.0 236.7q7.0 -8 17.5 -3l-10.5 8Z" fill="#8ca589" opacity="0.05" /><path d="M329.6 218.3q13.6 -8 33.9 -3l-20.4 8Z" fill="#8ca589" opacity="0.04" /><path d="M143.7 261.0q7.6 -8 19.1 -3l-11.4 8Z" fill="#8ca589" opacity="0.06" /><path d="M315.5 265.9q17.0 -8 42.6 -3l-25.6 8Z" fill="#8ca589" opacity="0.04" /><path d="M13.5 251.5q4.6 -8 11.6 -3l-6.9 8Z" fill="#8ca589" opacity="0.09" /><path d="M356.0 226.0q13.0 -8 32.4 -3l-19.4 8Z" fill="#8ca589" opacity="0.04" /><path d="M89.2 242.4q13.7 -8 34.2 -3l-20.5 8Z" fill="#8ca589" opacity="0.08" /><path d="M27.4 242.4q3.6 -8 9.0 -3l-5.4 8Z" fill="#8ca589" opacity="0.06" /><path d="M380.8 213.3q8.6 -8 21.4 -3l-12.9 8Z" fill="#8ca589" opacity="0.09" /><path d="M69.9 245.7q13.1 -8 32.9 -3l-19.7 8Z" fill="#8ca589" opacity="0.05" /><path d="M149.9 227.5q6.9 -8 17.3 -3l-10.4 8Z" fill="#8ca589" opacity="0.09" /><path d="M310.5 223.1q16.4 -8 41.0 -3l-24.6 8Z" fill="#8ca589" opacity="0.06" /><path d="M221.0 252.7q13.6 -8 34.0 -3l-20.4 8Z" fill="#8ca589" opacity="0.08" /><path d="M225.5 224.7q5.6 -8 14.0 -3l-8.4 8Z" fill="#8ca589" opacity="0.05" /><path d="M362.1 253.6q4.3 -8 10.8 -3l-6.5 8Z" fill="#8ca589" opacity="0.03" /><path d="M346.8 216.6q4.8 -8 12.1 -3l-7.2 8Z" fill="#8ca589" opacity="0.11" /><path d="M100.7 226.4q17.0 -8 42.4 -3l-25.4 8Z" fill="#8ca589" opacity="0.06" /><path d="M-12.7 251.2q6.1 -8 15.3 -3l-9.2 8Z" fill="#8ca589" opacity="0.08" /><path d="M-8.3 230.6q12.3 -8 30.8 -3l-18.5 8Z" fill="#8ca589" opacity="0.03" /><path d="M27.9 258.5q11.5 -8 28.8 -3l-17.3 8Z" fill="#8ca589" opacity="0.03" /><path d="M25.8 249.1q12.4 -8 31.1 -3l-18.6 8Z" fill="#8ca589" opacity="0.05" /><path d="M284.0 261.7q13.1 -8 32.7 -3l-19.6 8Z" fill="#8ca589" opacity="0.08" /><path d="M327.7 232.6q15.1 -8 37.8 -3l-22.7 8Z" fill="#8ca589" opacity="0.12" /><path d="M370.1 242.1q8.0 -8 20.1 -3l-12.0 8Z" fill="#8ca589" opacity="0.10" /><path d="M125.1 237.5q9.1 -8 22.8 -3l-13.7 8Z" fill="#8ca589" opacity="0.11" /><path d="M6.4 262.2q13.0 -8 32.6 -3l-19.6 8Z" fill="#8ca589" opacity="0.04" /><path d="M181.0 264.0q15.2 -8 38.0 -3l-22.8 8Z" fill="#8ca589" opacity="0.11" /><path d="M10.7 258.4q16.2 -8 40.5 -3l-24.3 8Z" fill="#8ca589" opacity="0.12" /><path d="M354.7 228.6q5.2 -8 13.0 -3l-7.8 8Z" fill="#8ca589" opacity="0.07" /><path d="M171.3 236.3q12.6 -8 31.5 -3l-18.9 8Z" fill="#8ca589" opacity="0.10" /><path d="M103.6 215.7q6.5 -8 16.3 -3l-9.8 8Z" fill="#8ca589" opacity="0.10" /><path d="M143.3 238.3q6.8 -8 17.1 -3l-10.3 8Z" fill="#8ca589" opacity="0.03" /><path d="M261.2 245.4q9.1 -8 22.7 -3l-13.6 8Z" fill="#8ca589" opacity="0.06" /><path d="M195.3 241.2q12.2 -8 30.5 -3l-18.3 8Z" fill="#8ca589" opacity="0.04" /><path d="M152.8 236.8q10.1 -8 25.2 -3l-15.1 8Z" fill="#8ca589" opacity="0.11" /><path d="M287.7 223.4q16.5 -8 41.2 -3l-24.7 8Z" fill="#8ca589" opacity="0.09" /><path d="M282.8 222.6q4.4 -8 11.0 -3l-6.6 8Z" fill="#8ca589" opacity="0.08" /><path d="M143.0 239.1q12.4 -8 30.9 -3l-18.5 8Z" fill="#8ca589" opacity="0.06" /><path d="M-0.8 213.9q7.1 -8 17.8 -3l-10.7 8Z" fill="#8ca589" opacity="0.06" /><path d="M61.7 210.8q9.6 -8 24.0 -3l-14.4 8Z" fill="#8ca589" opacity="0.05" /><path d="M189.3 260.9q9.0 -8 22.6 -3l-13.6 8Z" fill="#8ca589" opacity="0.10" /><path d="M257.4 242.5q4.8 -8 11.9 -3l-7.2 8Z" fill="#8ca589" opacity="0.04" /><path d="M249.7 255.4q11.8 -8 29.6 -3l-17.8 8Z" fill="#8ca589" opacity="0.05" /><path d="M194.0 211.6q8.0 -8 20.0 -3l-12.0 8Z" fill="#8ca589" opacity="0.09" /><path d="M77.8 259.6q9.7 -8 24.3 -3l-14.6 8Z" fill="#8ca589" opacity="0.07" /><path d="M359.6 230.9q7.3 -8 18.2 -3l-10.9 8Z" fill="#8ca589" opacity="0.09" /><path d="M77.2 224.0q12.4 -8 30.9 -3l-18.5 8Z" fill="#8ca589" opacity="0.07" /><path d="M114.8 207.0q6.2 -8 15.5 -3l-9.3 8Z" fill="#8ca589" opacity="0.04" /><path d="M247.4 263.8q5.6 -8 14.1 -3l-8.5 8Z" fill="#8ca589" opacity="0.08" /><path d="M18.1 255.0q16.9 -8 42.3 -3l-25.4 8Z" fill="#8ca589" opacity="0.07" /><path d="M366.9 265.9q5.4 -8 13.5 -3l-8.1 8Z" fill="#8ca589" opacity="0.11" /><path d="M328.0 206.1q10.1 -8 25.3 -3l-15.2 8Z" fill="#8ca589" opacity="0.03" /><path d="M95.3 237.7q6.8 -8 17.0 -3l-10.2 8Z" fill="#8ca589" opacity="0.09" /><path d="M354.8 244.7q13.1 -8 32.8 -3l-19.7 8Z" fill="#8ca589" opacity="0.09" /><path d="M16.9 256.2q6.9 -8 17.3 -3l-10.4 8Z" fill="#8ca589" opacity="0.09" /><path d="M308.0 217.4q6.3 -8 15.8 -3l-9.5 8Z" fill="#8ca589" opacity="0.08" /><path d="M339.7 248.4q12.9 -8 32.1 -3l-19.3 8Z" fill="#8ca589" opacity="0.10" /><path d="M132.7 251.8q8.7 -8 21.9 -3l-13.1 8Z" fill="#8ca589" opacity="0.10" /><path d="M332.4 230.1q9.3 -8 23.2 -3l-13.9 8Z" fill="#8ca589" opacity="0.08" /><path d="M205.0 244.8q16.8 -8 42.1 -3l-25.3 8Z" fill="#8ca589" opacity="0.03" /><path d="M78.3 249.8q14.6 -8 36.4 -3l-21.9 8Z" fill="#8ca589" opacity="0.07" /><path d="M252.9 212.0q10.2 -8 25.5 -3l-15.3 8Z" fill="#8ca589" opacity="0.04" /><path d="M225.1 261.2q13.7 -8 34.4 -3l-20.6 8Z" fill="#8ca589" opacity="0.04" /><path d="M29.6 221.5q13.3 -8 33.3 -3l-20.0 8Z" fill="#8ca589" opacity="0.08" /><path d="M243.0 227.8q11.3 -8 28.2 -3l-16.9 8Z" fill="#8ca589" opacity="0.10" /></g><ellipse xmlns="http://www.w3.org/2000/svg" cx="157" cy="227" rx="245" ry="18" fill="#e8e4c4" opacity=".13" filter="url(#day-haze)" /><path xmlns="http://www.w3.org/2000/svg" d="M76 193L117 186L150 208L179 214L127 202Z" fill="#c0c6ab" opacity=".27" /><path xmlns="http://www.w3.org/2000/svg" d="M239 210L272 204L296 214L335 228L290 219Z" fill="#cad0a4" opacity=".3" /></svg>